<?xml version="1.0" encoding="utf-8"?>
<!-- Generated by IcoMoon.io -->
<!DOCTYPE svg PUBLIC "-//W3C//DTD SVG 1.1//EN" "http://www.w3.org/Graphics/SVG/1.1/DTD/svg11.dtd">
<svg version="1.1" xmlns="http://www.w3.org/2000/svg" xmlns:xlink="http://www.w3.org/1999/xlink" width="512" height="512" viewBox="0 0 512 512">
<g>
</g>
	<path d="M406.948 45.65c-27.904 38.297-57.447 79.104-85.135 117.442-86.405 0.583-170.711-1.485-257.106-1.085-7.045 9.799-14.131 19.6-21.207 29.369 71.414 18.535 142.786 37.059 214.19 55.593-23.296 31.222-44.329 64.123-57.231 102.82-38.922 1.464-78.059 3.134-117.013 4.782-4.362 5.837-8.745 11.868-12.912 17.93 35.819 12.278 77.875 15.175 113.684 27.269 22.282 31.017 27.269 66.837 49.552 97.628 4.567-4.598 18.514-15.596 23.091-20.224-10.608-37.663-19.774-64.103-30.403-101.775 33.526-27.269 60.16-59.341 80.158-96.615 37.673 60.631 75.151 120.976 112.834 181.545 6.656-7.906 13.538-15.596 20.194-23.317-26.010-79.524-52.050-159.027-78.049-238.776 42.67-57.252 118.866-121.579 105.339-183.613-22.507-0.809-43.755 12.083-59.986 31.027z" fill="#000000" />
</svg>
